:SAMPLES-PER-SECOND 30
:FRAME-RANGE 1-1700
:FULLY-SPECIFIED
:DEGREES
479
root  52.5202 41.0797 -24.7681 140.344 70.8226 145.612
RightUpLeg  -6.59924 -6.11535 -1.25042
RightLeg  28.8866 -3.39708 -2.26136
RightFoot  -16.1861 -0.0276384 1.93719
RightToes  6.35937e-011 1.2921e-014 -6.02303e-014
Spine  23.1559 3.33695 3.52613
Spine1  -7.65923 3.02867 -0.453147
HEad  7.71056 19.6814 -16.9984
LeftShoulder1  2.39583 -9.50937 -11.8048
LeftArm  19.9769 -41.425 -90.2965
LeftForeArm  72.7072 5.96098 -13.7972
LeftHand  -0.244806 12.5611 -2.73158
RightShoulder  3.55403 9.60839 21.334
RightArm  -12.5707 34.8374 71.1047
RightForeArm  96.4875 -4.25513 4.15343
RightHand  0.631565 -10.0617 -16.2234
LeftUpLeg  -101.489 8.97121 -50.8175
LeftLeg  104.619 -2.59061 7.67245
LeftFoot  -31.2616 -0.702355 -5.06998
LeftToes  -1.9349e-011 5.45182e-011 1.33515e-010
480
root  53.0877 40.3173 -25.2395 131.72 73.3445 136.676
RightUpLeg  -8.65867 -3.12422 -1.37394
RightLeg  23.4417 -3.06874 -1.67662
RightFoot  -21.115 0.235215 4.42362
RightToes  6.35937e-011 1.2921e-014 -6.02303e-014
Spine  23.7586 3.30526 3.88368
Spine1  -6.57135 3.31425 -1.21814
HEad  6.64984 18.4398 -15.4755
LeftShoulder1  2.279 -9.07593 -11.4853
LeftArm  17.9002 -41.6273 -88.9048
LeftForeArm  72.1604 6.29917 -13.2809
LeftHand  -0.236185 12.5137 -2.61902
RightShoulder  3.57667 9.98837 20.6743
RightArm  -10.37 35.9372 72.1953
RightForeArm  95.8592 -4.46575 5.25453
RightHand  0.630148 -10.1181 -16.0103
LeftUpLeg  -102.974 10.3685 -51.4481
LeftLeg  104.473 -2.05704 5.96344
LeftFoot  -31.3765 -0.763325 -5.38892
LeftToes  -1.9349e-011 5.45182e-011 1.33515e-010
481
root  53.8071 39.1023 -25.7393 122.076 74.6006 127.844
RightUpLeg  -9.82038 -1.39704 -1.74194
RightLeg  22.4035 -4.72898 -2.35629
RightFoot  -23.535 0.229609 3.64278
RightToes  6.35937e-011 1.2921e-014 -6.02303e-014
Spine  24.0625 3.17645 4.0858
Spine1  -5.05534 3.40882 -1.78104
HEad  7.38964 16.0669 -13.3522
LeftShoulder1  2.16089 -9.11635 -10.3617
LeftArm  16.8035 -42.3102 -89.3422
LeftForeArm  73.0611 6.42587 -12.8397
LeftHand  -0.251174 12.6625 -2.78263
RightShoulder  3.57715 10.3186 19.9777
RightArm  -9.07154 36.2314 72.9069
RightForeArm  94.3783 -4.6584 6.01175
RightHand  0.645755 -10.1324 -16.324
LeftUpLeg  -102.938 11.3044 -50.8513
LeftLeg  105.371 -2.2692 6.30358
LeftFoot  -31.5315 -0.729532 -5.16262
LeftToes  -1.9349e-011 5.45182e-011 1.33515e-010
482
root  54.6922 37.8474 -26.1362 112.324 75.6666 119.586
RightUpLeg  -13.6941 2.30746 -0.24616
RightLeg  33.661 -8.39772 -6.22659
RightFoot  -16.602 -0.502644 -8.48423
RightToes  6.35937e-011 1.2921e-014 -6.02303e-014
Spine  24.0851 3.68898 4.23062
Spine1  -4.25716 3.3691 -0.659106
HEad  8.9229 13.2608 -12.267
LeftShoulder1  2.00782 -9.19003 -8.88004
LeftArm  16.354 -42.7108 -91.5089
LeftForeArm  76.1804 6.37365 -12.4114
LeftHand  -0.280564 12.9481 -3.0878
RightShoulder  3.51182 10.2517 19.5978
RightArm  -9.29364 36.2867 73.4459
RightForeArm  94.7426 -4.58259 5.6506
RightHand  0.637147 -10.0761 -16.3066
LeftUpLeg  -101.686 12.7952 -49.1016
LeftLeg  106.818 -3.09784 8.18168
LeftFoot  -31.6941 -0.521791 -3.97033
LeftToes  -1.9349e-011 5.45182e-011 1.33515e-010
483
root  55.4247 36.1003 -26.5988 104.895 76.9601 115.593
RightUpLeg  -16.5481 3.98333 1.29772
RightLeg  48.6845 -7.19373 -9.01729
RightFoot  -20.6518 -0.981866 -10.3128
RightToes  6.35937e-011 1.2921e-014 -6.02303e-014
Spine  25.831 2.59712 4.62534
Spine1  -1.78261 2.86503 -0.70053
HEad  8.09834 11.4887 -12.1351
LeftShoulder1  1.93429 -9.12894 -8.30676
LeftArm  16.6487 -43.2904 -92.3291
LeftForeArm  78.827 6.27643 -12.1859
LeftHand  -0.278159 13.0933 -2.98358
RightShoulder  3.58296 10.2572 20.1514
RightArm  -8.91997 36.7888 73.0505
RightForeArm  94.361 -4.64152 5.90307
RightHand  0.661822 -10.2063 -16.4537
LeftUpLeg  -99.6063 13.3377 -48.0608
LeftLeg  107.993 -5.34554 13.611
LeftFoot  -30.8198 -0.253218 -2.55709
LeftToes  -1.9349e-011 5.45182e-011 1.33515e-010
484
root  56.519 35.0678 -26.8724 109.863 75.2855 121.89
RightUpLeg  -16.6077 1.92816 0.273329
RightLeg  56.1313 -6.47089 -10.6787
RightFoot  -26.4274 -1.3857 -9.09058
RightToes  6.35937e-011 1.2921e-014 -6.02303e-014
Spine  24.0546 1.8199 1.88612
Spine1  0.174178 0.959882 1.64991
HEad  7.94891 8.98145 -10.9541
LeftShoulder1  2.09531 -9.88925 -8.66749
LeftArm  20.4312 -43.76 -92.6053
LeftForeArm  76.3907 6.08225 -13.2791
LeftHand  -0.28245 12.9743 -3.10278
RightShoulder  3.49456 9.689 20.6607
RightArm  -8.34667 36.4304 71.5499
RightForeArm  93.3875 -4.83635 6.82563
RightHand  0.605688 -9.8058 -16.4611
LeftUpLeg  -95.0843 11.1401 -49.6985
LeftLeg  108.078 -5.75542 14.6023
LeftFoot  -30.8651 -0.214606 -2.32834
LeftToes  -1.9349e-011 5.45182e-011 1.33515e-010
485
root  57.6023 34.373 -27.1283 113.526 75.6206 126.171
RightUpLeg  -15.8354 0.748058 1.14659
RightLeg  60.3128 -5.91649 -11.5829
RightFoot  -30.5479 -1.58048 -8.09896
RightToes  6.35937e-011 1.2921e-014 -6.02303e-014
Spine  23.7569 1.37624 1.7127
Spine1  -1.03761 0.194823 2.65153
HEad  6.9614 6.51272 -9.85478
LeftShoulder1  2.404 -10.5526 -10.3032
LeftArm  20.313 -42.8509 -92.9564
LeftForeArm  79.1678 5.8959 -13.3592
LeftHand  -0.310845 12.6331 -3.71301
RightShoulder  3.28865 8.78617 20.9845
RightArm  -8.40308 35.329 69.6541
RightForeArm  93.0679 -4.96147 7.51089
RightHand  0.549297 -9.48184 -16.1754
LeftUpLeg  -92.7855 8.5673 -50.505
LeftLeg  108.377 -5.65219 14.1174
LeftFoot  -30.4711 -0.304823 -2.89795
LeftToes  -1.9349e-011 5.45182e-011 1.33515e-010
486
root  58.6397 34.2903 -27.2407 105.753 76.6317 117.897
RightUpLeg  -14.5679 1.71542 1.32552
RightLeg  60.901 -5.32621 -10.7669
RightFoot  -32.5339 -1.74182 -8.11173
RightToes  6.35937e-011 1.2921e-014 -6.02303e-014
Spine  22.9419 1.61614 1.48826
Spine1  -1.84118 0.499271 1.89503
HEad  4.34208 4.67472 -8.35988
LeftShoulder1  2.5745 -10.9176 -11.1398
LeftArm  23.001 -42.4712 -92.6684
LeftForeArm  77.9021 5.47642 -14.0388
LeftHand  -0.303426 12.7213 -3.5487
RightShoulder  3.31112 8.70596 21.379
RightArm  -8.90626 34.686 68.9153
RightForeArm  93.3285 -4.94526 7.48513
RightHand  0.568276 -9.55186 -16.4183
LeftUpLeg  -93.1947 7.8387 -51.2723
LeftLeg  107.924 -4.97898 12.7052
LeftFoot  -30.4974 -0.387469 -3.38433
LeftToes  -1.9349e-011 5.45182e-011 1.33515e-010
487
root  59.724 34.8225 -27.2648 93.7585 77.2631 105.176
RightUpLeg  -11.8175 2.19001 0.725139
RightLeg  57.8091 -4.47175 -8.07328
RightFoot  -32.6089 -1.93012 -9.0766
RightToes  6.35937e-011 1.2921e-014 -6.02303e-014
Spine  21.859 1.85632 0.658355
Spine1  -2.52838 0.585626 1.79582
HEad  2.03371 3.51823 -7.71769
LeftShoulder1  2.55356 -10.241 -11.9738
LeftArm  22.7916 -41.7791 -91.7251
LeftForeArm  77.3427 5.46486 -14.0873
LeftHand  -0.314956 12.7181 -3.72555
RightShoulder  3.42179 8.77141 22.1985
RightArm  -10.4788 34.8414 69.2936
RightForeArm  95.0142 -4.65859 6.19491
RightHand  0.583737 -9.63375 -16.5197
LeftUpLeg  -94.3146 7.38952 -51.2967
LeftLeg  107.213 -4.65556 12.3217
LeftFoot  -30.6654 -0.400085 -3.43449
LeftToes  -1.9349e-011 5.45182e-011 1.33515e-010
488
root  60.9374 35.7712 -27.1883 81.3204 77.1746 91.991
RightUpLeg  -7.75388 2.0051 -0.351418
RightLeg  51.9543 -3.09139 -4.60881
RightFoot  -30.9981 -2.08533 -10.7855
RightToes  6.35937e-011 1.2921e-014 -6.02303e-014
Spine  20.9181 2.51571 -1.02322
Spine1  -4.55754 0.698055 3.11422
HEad  2.09702 1.84252 -7.24447
LeftShoulder1  2.56303 -10.0009 -12.43
LeftArm  22.2198 -40.8584 -91.0895
LeftForeArm  77.3932 5.42177 -14.1313
LeftHand  -0.325608 12.7038 -3.89599
RightShoulder  3.47284 8.51939 23.2981
RightArm  -11.5012 34.0029 69.0526
RightForeArm  96.3194 -4.51205 5.66909
RightHand  0.582654 -9.6459 -16.4482
LeftUpLeg  -96.079 6.78787 -51.1613
LeftLeg  107.481 -4.80898 12.5561
LeftFoot  -30.9481 -0.342726 -3.06236
LeftToes  -1.9349e-011 5.45182e-011 1.33515e-010
